<svg width="14" height="14" viewBox="0 0 14 14" fill="none" xmlns="http://www.w3.org/2000/svg">
<path d="M11.6667 4.08325H2.33341C1.68908 4.08325 1.16675 4.60559 1.16675 5.24992V11.0833C1.16675 11.7276 1.68908 12.2499 2.33341 12.2499H11.6667C12.3111 12.2499 12.8334 11.7276 12.8334 11.0833V5.24992C12.8334 4.60559 12.3111 4.08325 11.6667 4.08325Z" stroke="#333333" stroke-linecap="round" stroke-linejoin="round"/>
<path d="M9.33341 12.25V2.91667C9.33341 2.60725 9.2105 2.3105 8.9917 2.09171C8.77291 1.87292 8.47617 1.75 8.16675 1.75H5.83341C5.524 1.75 5.22725 1.87292 5.00846 2.09171C4.78966 2.3105 4.66675 2.60725 4.66675 2.91667V12.25" stroke="#333333" stroke-linecap="round" stroke-linejoin="round"/>
</svg>
