<svg width="19" height="19" viewBox="0 0 19 19" fill="none" xmlns="http://www.w3.org/2000/svg">
<g clip-path="url(#clip0_3107_29731)">
<path d="M11.7747 16.0659C11.6678 16.0672 11.5658 16.1107 11.4907 16.1867C11.4157 16.2628 11.3736 16.3654 11.3736 16.4722C11.374 16.5596 11.357 16.6462 11.3235 16.7269C11.2899 16.8075 11.2406 16.8807 11.1783 16.942C11.1163 17.0051 11.0424 17.0553 10.9609 17.0897C10.8793 17.1242 10.7918 17.1421 10.7033 17.1425H8.29664C8.20815 17.1421 8.12061 17.1242 8.03909 17.0897C7.95756 17.0553 7.88366 17.0051 7.82164 16.942C7.75939 16.8807 7.71003 16.8075 7.6765 16.7269C7.64296 16.6462 7.62591 16.5596 7.62636 16.4722C7.6457 16.0935 7.55667 15.7171 7.36972 15.3871C7.18277 15.0571 6.90564 14.7873 6.57081 14.6092C6.27273 14.4306 5.93289 14.3337 5.58547 14.3282C5.23805 14.3226 4.89528 14.4086 4.59164 14.5775C4.50292 14.6354 4.40354 14.675 4.29933 14.6941C4.19512 14.7131 4.08815 14.7111 3.9847 14.6884C3.81413 14.6409 3.66852 14.5293 3.57831 14.377L2.3697 12.2659C2.32085 12.186 2.289 12.0969 2.27613 12.0042C2.26327 11.9114 2.26967 11.8171 2.29493 11.7269C2.32019 11.6368 2.36377 11.5528 2.42295 11.4803C2.48213 11.4077 2.55563 11.3481 2.63886 11.3053C2.96114 11.1179 3.22566 10.8455 3.40346 10.5178C3.58126 10.1901 3.66548 9.81985 3.64692 9.44752C3.64935 9.08169 3.55245 8.72206 3.36656 8.40697C3.18066 8.09188 2.91274 7.83314 2.59136 7.65835C2.43854 7.56905 2.32724 7.42293 2.28176 7.25187C2.23627 7.08081 2.2603 6.89871 2.34859 6.7453L3.5572 4.63418C3.64741 4.48184 3.79302 4.37027 3.96359 4.32279C4.05828 4.29849 4.15703 4.29439 4.25342 4.31075C4.3498 4.32712 4.44167 4.36359 4.52303 4.4178C4.91213 4.63764 5.36351 4.72123 5.80553 4.65529C5.85988 4.65011 5.9126 4.63388 5.96046 4.6076C6.00833 4.58133 6.05032 4.54556 6.08387 4.50248C6.11742 4.45941 6.14182 4.40994 6.15559 4.3571C6.16935 4.30426 6.17218 4.24917 6.1639 4.19521C6.15563 4.14124 6.13642 4.08953 6.10746 4.04324C6.0785 3.99695 6.04039 3.95707 5.99548 3.92603C5.95056 3.89498 5.89978 3.87344 5.84625 3.86271C5.79271 3.85198 5.73755 3.85229 5.68414 3.86363C5.41907 3.89351 5.15161 3.83407 4.92414 3.69474C4.75026 3.58912 4.55645 3.52054 4.35483 3.49329C4.15322 3.46605 3.94815 3.48072 3.75247 3.53641C3.56526 3.5848 3.38974 3.67052 3.23647 3.78842C3.0832 3.90632 2.95533 4.05398 2.86053 4.22252L1.64664 6.33363C1.45205 6.67075 1.39833 7.07104 1.49715 7.44754C1.59597 7.82405 1.83935 8.14636 2.17442 8.34446C2.36835 8.4458 2.53173 8.59705 2.6477 8.7826C2.76367 8.96815 2.82803 9.18129 2.83414 9.40002C2.85588 9.64411 2.80482 9.88918 2.68741 10.1043C2.56999 10.3194 2.39149 10.4949 2.17442 10.6086C1.83935 10.8067 1.59597 11.129 1.49715 11.5055C1.39833 11.882 1.45205 12.2823 1.64664 12.6195L2.86053 14.7306C2.95315 14.8992 3.07815 15.048 3.22838 15.1682C3.3786 15.2885 3.55109 15.3779 3.73594 15.4313C3.9208 15.4848 4.11439 15.5012 4.30561 15.4797C4.49683 15.4581 4.68191 15.3991 4.85025 15.3059C5.04434 15.188 5.26706 15.1256 5.49414 15.1256C5.72122 15.1256 5.94395 15.188 6.13803 15.3059C6.35659 15.41 6.53883 15.5773 6.66117 15.7862C6.7835 15.9951 6.84028 16.236 6.82414 16.4775C6.82692 16.8667 6.98312 17.2391 7.25881 17.5138C7.53451 17.7885 7.90745 17.9434 8.29664 17.9447H10.7033C11.0934 17.9433 11.4671 17.7878 11.743 17.5119C12.0188 17.2361 12.1744 16.8623 12.1758 16.4722C12.1758 16.3654 12.1337 16.2628 12.0587 16.1867C11.9836 16.1107 11.8816 16.0672 11.7747 16.0659Z" fill="black" stroke="black"/>
<path d="M16.8151 10.6454C16.6169 10.5424 16.4506 10.3871 16.3343 10.1964C16.2181 10.0057 16.1562 9.78681 16.1553 9.56344C16.1336 9.31935 16.1847 9.07428 16.3021 8.85918C16.4195 8.64407 16.598 8.46858 16.8151 8.35483C17.1501 8.15673 17.3935 7.83442 17.4923 7.45791C17.5911 7.08141 17.5374 6.68112 17.3428 6.344L16.1448 4.22233C15.9478 3.89046 15.6283 3.64921 15.2552 3.55051C14.8821 3.4518 14.4851 3.50353 14.1498 3.69455C13.9561 3.81086 13.7344 3.8723 13.5085 3.8723C13.2826 3.8723 13.0609 3.81086 12.8673 3.69455C12.6487 3.59043 12.4665 3.42308 12.3441 3.21417C12.2218 3.00527 12.165 2.76444 12.1812 2.52289C12.1784 2.13279 12.0215 1.75961 11.7446 1.48476C11.4678 1.2099 11.0935 1.05565 10.7034 1.05566H8.29672C7.90662 1.05705 7.53289 1.21264 7.25704 1.48849C6.98119 1.76433 6.82561 2.13806 6.82422 2.52816C6.82422 2.63455 6.86648 2.73657 6.9417 2.81179C7.01692 2.88702 7.11895 2.92928 7.22533 2.92928C7.33171 2.92928 7.43373 2.88702 7.50896 2.81179C7.58418 2.73657 7.62644 2.63455 7.62644 2.52816C7.62599 2.4408 7.64303 2.35423 7.67657 2.27355C7.71011 2.19288 7.75946 2.11974 7.82172 2.05844C7.88373 1.99531 7.95764 1.94509 8.03916 1.91066C8.12069 1.87624 8.20822 1.8583 8.29672 1.85789H10.7034C10.7919 1.8583 10.8794 1.87624 10.9609 1.91066C11.0425 1.94509 11.1164 1.99531 11.1784 2.05844C11.2406 2.11974 11.29 2.19288 11.3235 2.27355C11.3571 2.35423 11.3741 2.4408 11.3737 2.52816C11.3568 2.90969 11.4497 3.28805 11.6415 3.6183C11.8333 3.94855 12.1159 4.21681 12.4556 4.39122C12.7698 4.57642 13.1279 4.6741 13.4927 4.6741C13.8574 4.6741 14.2155 4.57642 14.5298 4.39122C14.608 4.34345 14.6955 4.31266 14.7864 4.30084C14.8773 4.28902 14.9697 4.29644 15.0576 4.32261C15.2303 4.36835 15.3782 4.48019 15.4692 4.634L16.6778 6.74511C16.7661 6.89852 16.7901 7.08062 16.7447 7.25168C16.6992 7.42274 16.5879 7.56886 16.4351 7.65816C16.0985 7.84252 15.8209 8.11817 15.6342 8.45338C15.4474 8.78858 15.3591 9.16971 15.3795 9.55289C15.3771 9.91872 15.474 10.2783 15.6599 10.5934C15.8458 10.9085 16.1137 11.1673 16.4351 11.3421C16.5879 11.4314 16.6992 11.5775 16.7447 11.7485C16.7901 11.9196 16.7661 12.1017 16.6778 12.2551L15.4692 14.3662C15.3782 14.52 15.2303 14.6319 15.0576 14.6776C14.9697 14.7038 14.8773 14.7112 14.7864 14.6994C14.6955 14.6876 14.608 14.6568 14.5298 14.609C14.2833 14.4582 14.0075 14.3618 13.7208 14.3263C13.4341 14.2908 13.143 14.317 12.8673 14.4032C12.7757 14.4435 12.7022 14.5162 12.6609 14.6074C12.6196 14.6985 12.6134 14.8017 12.6435 14.8972C12.6735 14.9927 12.7378 15.0737 12.8239 15.1247C12.91 15.1757 13.0119 15.1932 13.1101 15.1737C13.2791 15.1192 13.458 15.1027 13.6341 15.1256C13.8103 15.1484 13.9791 15.2099 14.1287 15.3057C14.2957 15.4035 14.4803 15.4675 14.6721 15.494C14.8638 15.5204 15.0589 15.5088 15.2461 15.4598C15.4334 15.4108 15.6092 15.3253 15.7633 15.2083C15.9175 15.0913 16.0472 14.945 16.1448 14.7779L17.3534 12.6668C17.4509 12.4987 17.5144 12.3131 17.5402 12.1205C17.5659 11.928 17.5534 11.7322 17.5034 11.5444C17.4534 11.3567 17.3669 11.1806 17.2488 11.0264C17.1306 10.8721 16.9833 10.7426 16.8151 10.6454Z" fill="black" stroke="black"/>
<path d="M12.0966 7.35737C12.0966 6.85423 11.9474 6.3624 11.6678 5.94406C11.3883 5.52572 10.991 5.19966 10.5262 5.00712C10.0613 4.81458 9.54986 4.7642 9.05639 4.86236C8.56292 4.96051 8.10965 5.2028 7.75388 5.55857C7.39811 5.91433 7.15583 6.36761 7.05767 6.86108C6.95951 7.35454 7.00989 7.86604 7.20243 8.33087C7.39497 8.79571 7.72103 9.19301 8.13937 9.47253C8.55771 9.75206 9.04955 9.90126 9.55268 9.90126C10.2269 9.89986 10.8732 9.6314 11.3499 9.15463C11.8267 8.67786 12.0952 8.03162 12.0966 7.35737ZM7.81629 7.35737C7.81629 7.01267 7.91857 6.67573 8.11018 6.3892C8.3018 6.10267 8.57412 5.87944 8.89267 5.74778C9.21123 5.61611 9.56169 5.58193 9.89968 5.64956C10.2377 5.71719 10.548 5.8836 10.7914 6.1277C11.0347 6.37181 11.2002 6.68263 11.2668 7.02083C11.3334 7.35903 11.2982 7.70938 11.1655 8.02754C11.0329 8.34569 10.8088 8.61734 10.5217 8.80808C10.2346 8.99882 9.89737 9.10008 9.55268 9.09903C9.09211 9.09625 8.65126 8.9117 8.32608 8.58552C8.00089 8.25935 7.81767 7.81795 7.81629 7.35737Z" fill="black" stroke="black"/>
<path d="M13.1944 12.7141C13.1944 12.1821 12.9831 11.672 12.607 11.2959C12.2309 10.9198 11.7208 10.7085 11.1889 10.7085H7.95889C7.42594 10.7099 6.91497 10.9211 6.53663 11.2965C6.1583 11.6718 5.94305 12.1811 5.9375 12.7141C5.93749 12.8209 5.97958 12.9235 6.05466 12.9996C6.12973 13.0756 6.23175 13.1191 6.33861 13.1204C6.44499 13.1204 6.54702 13.0782 6.62224 13.003C6.69746 12.9277 6.73972 12.8257 6.73972 12.7193C6.74387 12.3982 6.87398 12.0916 7.10202 11.8656C7.33007 11.6395 7.63779 11.5121 7.95889 11.5107H11.1678C11.4865 11.5121 11.7918 11.6393 12.0171 11.8647C12.2425 12.0901 12.3697 12.3953 12.3711 12.7141C12.3711 12.8204 12.4134 12.9225 12.4886 12.9977C12.5638 13.0729 12.6658 13.1152 12.7722 13.1152C12.8786 13.1152 12.9806 13.0729 13.0559 12.9977C13.1311 12.9225 13.1733 12.8204 13.1733 12.7141H13.1944Z" fill="black" stroke="black"/>
</g>
<defs>
<clipPath id="clip0_3107_29731">
<rect width="19" height="19" fill="white"/>
</clipPath>
</defs>
</svg>
