<svg width="19" height="19" viewBox="0 0 19 19" fill="none" xmlns="http://www.w3.org/2000/svg">
<g clip-path="url(#clip0_3107_29714)">
<path d="M9.5 0.791504V18.2082" stroke="#131623" stroke-width="2" stroke-linecap="round" stroke-linejoin="round"/>
<path d="M13.4583 3.9585H7.52083C6.78596 3.9585 6.08119 4.25042 5.56156 4.77005C5.04193 5.28969 4.75 5.99446 4.75 6.72933C4.75 7.4642 5.04193 8.16897 5.56156 8.6886C6.08119 9.20824 6.78596 9.50016 7.52083 9.50016H11.4792C12.214 9.50016 12.9188 9.79209 13.4384 10.3117C13.9581 10.8314 14.25 11.5361 14.25 12.271C14.25 13.0059 13.9581 13.7106 13.4384 14.2303C12.9188 14.7499 12.214 15.0418 11.4792 15.0418H4.75" stroke="#131623" stroke-width="2" stroke-linecap="round" stroke-linejoin="round"/>
</g>
<defs>
<clipPath id="clip0_3107_29714">
<rect width="19" height="19" fill="white"/>
</clipPath>
</defs>
</svg>
