<svg width="19" height="19" viewBox="0 0 19 19" fill="none" xmlns="http://www.w3.org/2000/svg">
<path d="M15.8335 5.54175H3.16683C2.29238 5.54175 1.5835 6.25063 1.5835 7.12508V15.0417C1.5835 15.9162 2.29238 16.6251 3.16683 16.6251H15.8335C16.7079 16.6251 17.4168 15.9162 17.4168 15.0417V7.12508C17.4168 6.25063 16.7079 5.54175 15.8335 5.54175Z" stroke="black" stroke-width="2" stroke-linecap="round" stroke-linejoin="round"/>
<path d="M12.6668 16.625V3.95833C12.6668 3.53841 12.5 3.13568 12.2031 2.83875C11.9061 2.54181 11.5034 2.375 11.0835 2.375H7.91683C7.4969 2.375 7.09418 2.54181 6.79724 2.83875C6.50031 3.13568 6.3335 3.53841 6.3335 3.95833V16.625" stroke="black" stroke-width="2" stroke-linecap="round" stroke-linejoin="round"/>
</svg>
