<svg width="19" height="19" viewBox="0 0 19 19" fill="none" xmlns="http://www.w3.org/2000/svg">
<path fill-rule="evenodd" clip-rule="evenodd" d="M1.70801 3.125C1.70801 1.95139 2.6594 1 3.83301 1H10.9163C12.0899 1 13.0413 1.95139 13.0413 3.125V18H1.70801V3.125ZM3.83301 2.41667C3.44181 2.41667 3.12467 2.7338 3.12467 3.125V16.5833H11.6247V3.125C11.6247 2.7338 11.3075 2.41667 10.9163 2.41667H3.83301Z" fill="black"/>
<path fill-rule="evenodd" clip-rule="evenodd" d="M15.1667 7.37516H11.625V5.9585H15.1667C16.3402 5.9585 17.2917 6.90989 17.2917 8.0835V18.0002H11.625V16.5835H15.875V8.0835C15.875 7.6923 15.5578 7.37516 15.1667 7.37516Z" fill="black"/>
<path fill-rule="evenodd" clip-rule="evenodd" d="M11.625 10.2083C11.625 9.81713 11.9421 9.5 12.3333 9.5H13.75C14.1411 9.5 14.4583 9.81713 14.4583 10.2083C14.4583 10.5995 14.1411 10.9167 13.75 10.9167H12.3333C11.9421 10.9167 11.625 10.5995 11.625 10.2083Z" fill="black"/>
<path fill-rule="evenodd" clip-rule="evenodd" d="M5.25 5.24984C5.25 4.85864 5.56713 4.5415 5.95833 4.5415H8.79167C9.18286 4.5415 9.5 4.85864 9.5 5.24984C9.5 5.64104 9.18286 5.95817 8.79167 5.95817H5.95833C5.56713 5.95817 5.25 5.64104 5.25 5.24984Z" fill="black"/>
<path fill-rule="evenodd" clip-rule="evenodd" d="M5.25 8.79183C5.25 8.40063 5.56713 8.0835 5.95833 8.0835H8.79167C9.18286 8.0835 9.5 8.40063 9.5 8.79183C9.5 9.18303 9.18286 9.50016 8.79167 9.50016H5.95833C5.56713 9.50016 5.25 9.18303 5.25 8.79183Z" fill="black"/>
<path fill-rule="evenodd" clip-rule="evenodd" d="M11.625 13.7498C11.625 13.3587 11.9421 13.0415 12.3333 13.0415H13.75C14.1411 13.0415 14.4583 13.3587 14.4583 13.7498C14.4583 14.141 14.1411 14.4582 13.75 14.4582H12.3333C11.9421 14.4582 11.625 14.141 11.625 13.7498Z" fill="black"/>
<path fill-rule="evenodd" clip-rule="evenodd" d="M5.25 12.3333C5.25 11.9421 5.56713 11.625 5.95833 11.625H8.79167C9.18286 11.625 9.5 11.9421 9.5 12.3333V17.2917C9.5 17.6828 9.18286 18 8.79167 18C8.40047 18 8.08333 17.6828 8.08333 17.2917V13.0417H6.66667V17.2917C6.66667 17.6828 6.34953 18 5.95833 18C5.56713 18 5.25 17.6828 5.25 17.2917V12.3333Z" fill="black"/>
<path fill-rule="evenodd" clip-rule="evenodd" d="M0.291504 17.2918C0.291504 16.9007 0.608639 16.5835 0.999837 16.5835H17.9998C18.391 16.5835 18.7082 16.9007 18.7082 17.2918C18.7082 17.683 18.391 18.0002 17.9998 18.0002H0.999837C0.608639 18.0002 0.291504 17.683 0.291504 17.2918Z" fill="black"/>
</svg>
