<svg width="112" height="32" viewBox="0 0 112 32" fill="none" xmlns="http://www.w3.org/2000/svg">
<path d="M5.78681 15.1733H0.0227772V1.95927C0.273387 1.9137 0.660694 1.84535 1.16191 1.777C1.66314 1.70865 2.18714 1.66309 2.68836 1.66309C3.78193 1.66309 4.57934 1.84535 5.05777 2.23265C5.53621 2.59718 5.78681 3.32623 5.78681 4.39702V15.1733ZM9.81936 25.3571C7.76891 25.3571 6.01464 24.9926 4.53376 24.2636C3.05288 23.5345 1.93653 22.5093 1.16191 21.1651C0.387301 19.8437 0 18.2945 0 16.5174V14.0569H5.76403V16.3807C5.76403 17.7249 6.15134 18.7729 6.90317 19.5248C7.655 20.2766 8.63466 20.6411 9.79658 20.6411C10.9585 20.6411 11.9382 20.2766 12.69 19.5248C13.4418 18.7729 13.8291 17.7249 13.8291 16.3807V14.0569H19.6387V16.5174C19.6387 18.2945 19.2514 19.8437 18.454 21.1651C17.6794 22.4865 16.5403 23.5117 15.0822 24.2636C13.6241 25.0154 11.8926 25.3571 9.81936 25.3571ZM19.6615 15.2416H13.8519V1.95927C14.1253 1.9137 14.5126 1.84535 15.0366 1.777C15.5378 1.70865 16.0618 1.66309 16.5631 1.66309C17.6566 1.66309 18.454 1.84535 18.9325 2.23265C19.4109 2.59718 19.6615 3.32623 19.6615 4.39702V15.2416Z" fill="white"/>
<path d="M33.2399 25.289C32.3058 25.289 31.4856 25.1751 30.7566 24.9473C30.0275 24.7195 29.3668 24.4689 28.7973 24.1727V19.3883C29.2529 19.7528 29.7542 20.0946 30.3465 20.3908C30.9389 20.6869 31.6223 20.8236 32.4197 20.8236C33.7639 20.8236 34.8119 20.3908 35.5638 19.525C36.3156 18.6593 36.6801 17.3834 36.6801 15.6519C36.6801 14.4445 36.5206 13.4876 36.1789 12.7813C35.8371 12.0523 35.3587 11.5283 34.7664 11.1638C34.1512 10.822 33.4222 10.6397 32.5792 10.6397C32.0324 10.6397 31.5312 10.7081 31.0755 10.8448C30.6199 10.9815 30.2326 11.141 29.9136 11.3232V22.7829H24.3091V10.5486C24.3091 9.93348 24.4458 9.40948 24.6964 8.99939C24.947 8.5893 25.3343 8.22477 25.8355 7.90581C26.6101 7.42738 27.567 7.04007 28.7289 6.72111C29.8908 6.40216 31.1667 6.24268 32.5564 6.24268C34.493 6.24268 36.2245 6.56163 37.7053 7.22233C39.1862 7.86025 40.3481 8.88547 41.1911 10.298C42.0341 11.6877 42.4441 13.4876 42.4441 15.6975C42.4441 17.7935 42.034 19.5478 41.2366 20.9831C40.4393 22.4184 39.3457 23.512 37.9559 24.241C36.589 24.9017 35.017 25.289 33.2399 25.289ZM27.4075 31.7138C26.3367 31.7138 25.5393 31.5315 25.0609 31.1442C24.5597 30.7569 24.3091 30.0734 24.3091 29.071V21.2793L29.9592 21.3249V31.3948C29.7086 31.4632 29.3441 31.5543 28.8884 31.6227C28.4328 31.6682 27.9315 31.7138 27.4075 31.7138Z" fill="white"/>
<path d="M52.4457 20.6414C53.7671 20.6414 54.7239 20.4136 55.2935 19.9351C55.8631 19.4567 56.1592 18.9099 56.1592 18.2492C56.1592 17.6341 55.9314 17.1328 55.4758 16.7455C55.0201 16.381 54.3594 16.0393 53.4937 15.7659L51.5571 15.1735C50.213 14.6951 49.0055 14.1939 47.9575 13.6471C46.9094 13.1003 46.0893 12.394 45.5197 11.5055C44.9501 10.6398 44.654 9.52341 44.654 8.17923C44.654 6.106 45.4514 4.46564 47.0234 3.21259C48.6182 1.98232 50.8053 1.36719 53.6304 1.36719C55.0429 1.36719 56.3187 1.50388 57.4351 1.77727C58.5515 2.05067 59.4172 2.46076 60.0551 2.98476C60.693 3.53155 61.012 4.19225 61.012 4.98964C61.012 5.53643 60.8753 6.03765 60.6019 6.47052C60.3285 6.90339 59.9868 7.26792 59.5995 7.54131C59.0527 7.17679 58.3008 6.83504 57.344 6.53887C56.3871 6.24269 55.3391 6.106 54.2227 6.106C53.0152 6.106 52.1267 6.28826 51.5571 6.67557C50.9648 7.06287 50.6686 7.56409 50.6686 8.15644C50.6686 8.63488 50.8736 9.02219 51.261 9.34115C51.671 9.66011 52.2406 9.91072 53.0152 10.1385L55.0657 10.822C57.344 11.5283 59.0754 12.4396 60.3057 13.6015C61.536 14.7407 62.1283 16.3127 62.1283 18.272C62.1283 20.368 61.3081 22.0767 59.6906 23.3753C58.073 24.6739 55.7036 25.3346 52.6279 25.3346C51.1015 25.3346 49.7573 25.1752 48.5498 24.8562C47.3423 24.5372 46.4082 24.0588 45.6792 23.4437C44.9729 22.8285 44.6084 22.0995 44.6084 21.2793C44.6084 20.5958 44.7907 20.049 45.178 19.5706C45.5653 19.1149 45.9981 18.7504 46.4766 18.4998C47.1601 19.0466 48.003 19.5478 49.0055 19.9807C50.0307 20.4136 51.1698 20.6414 52.4457 20.6414Z" fill="white"/>
<path d="M68.2799 18.3628L68.052 14.5808L77.2563 13.1227C77.2107 12.4393 76.9145 11.8241 76.3677 11.2318C75.821 10.6394 75.0236 10.3432 73.9528 10.3432C72.8364 10.3432 71.9023 10.7078 71.1733 11.4596C70.4442 12.2114 70.0569 13.2594 70.0341 14.6492L70.2164 17.3148C70.4442 18.6362 71.0138 19.593 71.9479 20.1626C72.882 20.7322 73.9983 21.0284 75.2969 21.0284C76.3449 21.0284 77.3246 20.8917 78.2587 20.5955C79.1928 20.2993 79.9218 20.0031 80.4686 19.6842C80.8332 19.912 81.1521 20.2309 81.4027 20.6183C81.6533 21.0283 81.7672 21.4612 81.7672 21.9397C81.7672 22.6915 81.4711 23.3066 80.8787 23.8078C80.2864 24.3091 79.489 24.6736 78.441 24.9242C77.4157 25.1748 76.2083 25.2887 74.8641 25.2887C72.9503 25.2887 71.2188 24.9242 69.6696 24.1951C68.1432 23.4661 66.9357 22.3953 66.0471 20.9372C65.1814 19.5019 64.7485 17.6793 64.7485 15.4694C64.7485 13.8746 64.9992 12.4848 65.5232 11.3229C66.0244 10.161 66.7306 9.18132 67.5736 8.42949C68.4393 7.67766 69.3962 7.10809 70.4898 6.74357C71.5833 6.37904 72.7225 6.19678 73.9072 6.19678C75.5931 6.19678 77.0968 6.53852 78.3954 7.19922C79.694 7.88271 80.6964 8.79401 81.4255 9.97871C82.1545 11.1634 82.5191 12.5076 82.5191 14.034C82.5191 14.8314 82.314 15.4238 81.8812 15.8339C81.4483 16.244 80.8559 16.4718 80.0813 16.5857L68.2799 18.3628Z" fill="white"/>
<path d="M91.7691 17.8617L86.1646 17.7478V0.341741C86.3924 0.273393 86.7341 0.182262 87.1898 0.113914C87.6454 0.0455655 88.1466 0 88.6707 0C89.7642 0 90.5616 0.182262 91.0401 0.569569C91.5185 0.934093 91.7691 1.64035 91.7691 2.66558V17.8617ZM86.1646 14.8316L91.7691 14.9455V24.6737C91.5413 24.7421 91.1995 24.8104 90.7439 24.8788C90.2882 24.9471 89.787 24.9699 89.263 24.9699C88.1922 24.9699 87.3948 24.7876 86.9164 24.4003C86.4151 24.0358 86.1646 23.3295 86.1646 22.3499V14.8316Z" fill="white"/>
<path d="M103.707 25.3118C101.133 25.3118 99.0822 24.8106 97.5786 23.8082C96.0521 22.8057 95.3003 21.3248 95.3003 19.3655C95.3003 17.6796 95.8243 16.3582 96.8723 15.4469C97.9203 14.5356 99.4695 13.966 101.543 13.7382L106.555 13.2142V12.8041C106.555 11.9611 106.213 11.346 105.553 10.9815C104.892 10.6169 103.958 10.4119 102.727 10.4119C101.771 10.4119 100.859 10.5258 99.948 10.7536C99.0367 10.9815 98.2165 11.2549 97.4874 11.5738C97.1913 11.346 96.9406 11.027 96.7128 10.617C96.5078 10.2069 96.3939 9.77399 96.3939 9.31833C96.3939 8.24754 96.9634 7.47293 98.1254 6.99449C98.8544 6.7211 99.6974 6.51606 100.654 6.37936C101.611 6.24266 102.545 6.17432 103.434 6.17432C106.031 6.17432 108.104 6.7211 109.653 7.79189C111.203 8.86267 112 10.5486 112 12.8497V21.3476C112 21.9628 111.841 22.4868 111.522 22.8741C111.203 23.2614 110.793 23.6031 110.291 23.8765C109.54 24.3322 108.605 24.6739 107.512 24.9473C106.395 25.1751 105.142 25.3118 103.707 25.3118ZM103.707 21.1198C104.254 21.1198 104.801 21.0742 105.347 20.9603C105.894 20.8464 106.304 20.7097 106.578 20.5274V17.0189L103.434 17.3151C102.614 17.3606 101.953 17.5429 101.474 17.8391C100.996 18.1353 100.745 18.5909 100.745 19.1833C100.745 19.7528 100.973 20.2313 101.429 20.5958C101.907 20.9375 102.659 21.1198 103.707 21.1198Z" fill="white"/>
</svg>
