<svg width="16" height="17" viewBox="0 0 16 17" fill="none" xmlns="http://www.w3.org/2000/svg">
<g id="map-pin" clip-path="url(#clip0_1634_3706)">
<path id="Vector" d="M14 7.1665C14 11.8332 8 15.8332 8 15.8332C8 15.8332 2 11.8332 2 7.1665C2 5.57521 2.63214 4.04908 3.75736 2.92386C4.88258 1.79864 6.4087 1.1665 8 1.1665C9.5913 1.1665 11.1174 1.79864 12.2426 2.92386C13.3679 4.04908 14 5.57521 14 7.1665Z" stroke="black" stroke-linecap="round" stroke-linejoin="round"/>
<path id="Vector_2" d="M8 9.1665C9.10457 9.1665 10 8.27107 10 7.1665C10 6.06193 9.10457 5.1665 8 5.1665C6.89543 5.1665 6 6.06193 6 7.1665C6 8.27107 6.89543 9.1665 8 9.1665Z" stroke="black" stroke-linecap="round" stroke-linejoin="round"/>
</g>
<defs>
<clipPath id="clip0_1634_3706">
<rect width="16" height="16" fill="white" transform="translate(0 0.5)"/>
</clipPath>
</defs>
</svg>
