<svg width="1440" height="781" viewBox="0 0 1440 781" fill="none" xmlns="http://www.w3.org/2000/svg">
<g clip-path="url(#clip0_89_1487)">
<rect width="1440" height="781" fill="#0069FF"/>
<path d="M357 98C298.5 291 66.5 323.5 -97 197C-113.333 168.833 -146 109.6 -146 98C-146 86.4 -43.3333 -78.8333 8 -160L394.5 -140.5C401.5 -125.333 403.8 -56.4 357 98Z" fill="#4330F4"/>
<path d="M1679 511C1323.5 159 1036 483.5 1007 -84.5L1219.5 -99C1214.5 118.5 1568.5 245 1703 199.5C1810.6 163.1 1731.83 392 1679 511Z" fill="url(#paint0_linear_89_1487)"/>
<path d="M1526.5 781.963C1374.5 781.963 49.5 459.463 -70 741.963V814.463L1526.5 781.963Z" fill="url(#paint1_linear_89_1487)"/>
</g>
<defs>
<linearGradient id="paint0_linear_89_1487" x1="1027" y1="-79" x2="1526.5" y2="511" gradientUnits="userSpaceOnUse">
<stop stop-color="#4330F4"/>
<stop offset="1" stop-color="#4330F4" stop-opacity="0"/>
</linearGradient>
<linearGradient id="paint1_linear_89_1487" x1="196" y1="719.963" x2="1341.5" y2="754.963" gradientUnits="userSpaceOnUse">
<stop stop-color="#4330F4"/>
<stop offset="1" stop-color="#4330F4" stop-opacity="0"/>
</linearGradient>
<clipPath id="clip0_89_1487">
<rect width="1440" height="781" fill="white"/>
</clipPath>
</defs>
</svg>
